<svg width="11" height="19" viewBox="0 0 11 19" fill="none" xmlns="http://www.w3.org/2000/svg">
<path d="M9.97337 0.00413637L7.48761 0.000183105C4.69494 0.000183105 2.89019 1.83549 2.89019 4.67611V6.83202H0.390863C0.174891 6.83202 0 7.00557 0 7.21964V10.3433C0 10.5574 0.175091 10.7307 0.390863 10.7307H2.89019V18.6128C2.89019 18.8268 3.06508 19.0002 3.28105 19.0002H6.54196C6.75793 19.0002 6.93282 18.8266 6.93282 18.6128V10.7307H9.85512C10.0711 10.7307 10.246 10.5574 10.246 10.3433L10.2472 7.21964C10.2472 7.11686 10.2059 7.01842 10.1327 6.94568C10.0595 6.87294 9.95981 6.83202 9.85611 6.83202H6.93282V5.00443C6.93282 4.12601 7.14401 3.68008 8.29845 3.68008L9.97297 3.67949C10.1887 3.67949 10.3636 3.50594 10.3636 3.29207V0.391557C10.3636 0.177883 10.1889 0.0045317 9.97337 0.00413637Z" fill="#231F20"/>
</svg>
