<svg width="18" height="18" viewBox="0 0 18 18" fill="none" xmlns="http://www.w3.org/2000/svg">
<path d="M9.00036 0.140625C6.59441 0.140625 6.29246 0.151145 5.3475 0.194148C4.40439 0.237336 3.76063 0.386647 3.19735 0.605723C2.61469 0.831996 2.12043 1.13468 1.62801 1.62728C1.13523 2.11969 0.83255 2.61395 0.605538 3.19643C0.385908 3.7599 0.236413 4.40383 0.193963 5.34658C0.151699 6.29154 0.140625 6.59367 0.140625 8.99963C0.140625 11.4056 0.15133 11.7066 0.194148 12.6516C0.23752 13.5947 0.386831 14.2384 0.605723 14.8017C0.832181 15.3844 1.13486 15.8786 1.62746 16.3711C2.11969 16.8638 2.61395 17.1673 3.19624 17.3935C3.7599 17.6126 4.40383 17.7619 5.34676 17.8051C6.29172 17.8481 6.59348 17.8586 8.99926 17.8586C11.4054 17.8586 11.7064 17.8481 12.6514 17.8051C13.5945 17.7619 14.239 17.6126 14.8026 17.3935C15.3851 17.1673 15.8786 16.8638 16.3709 16.3711C16.8637 15.8786 17.1663 15.3844 17.3933 14.8019C17.6111 14.2384 17.7606 13.5945 17.8049 12.6517C17.8474 11.7068 17.8584 11.4056 17.8584 8.99963C17.8584 6.59367 17.8474 6.29172 17.8049 5.34676C17.7606 4.40365 17.6111 3.7599 17.3933 3.19661C17.1663 2.61395 16.8637 2.11969 16.3709 1.62728C15.8781 1.13449 15.3853 0.831812 14.8021 0.605723C14.2373 0.386647 13.5932 0.237336 12.6501 0.194148C11.7051 0.151145 11.4043 0.140625 8.9976 0.140625H9.00036ZM8.20564 1.73709C8.44151 1.73672 8.70469 1.73709 9.00036 1.73709C11.3657 1.73709 11.6461 1.74558 12.5801 1.78803C13.4439 1.82753 13.9127 1.97185 14.225 2.09311C14.6384 2.25368 14.9331 2.44563 15.243 2.75569C15.5531 3.06576 15.745 3.36106 15.906 3.77448C16.0272 4.08639 16.1717 4.55518 16.211 5.41893C16.2535 6.35281 16.2627 6.63335 16.2627 8.9976C16.2627 11.3618 16.2535 11.6424 16.211 12.5763C16.1715 13.44 16.0272 13.9088 15.906 14.2207C15.7454 14.6341 15.5531 14.9285 15.243 15.2384C14.9329 15.5485 14.6386 15.7404 14.225 15.901C13.913 16.0228 13.4439 16.1667 12.5801 16.2062C11.6463 16.2487 11.3657 16.2579 9.00036 16.2579C6.63483 16.2579 6.35448 16.2487 5.42059 16.2062C4.55684 16.1664 4.08805 16.022 3.77558 15.9008C3.36216 15.7402 3.06686 15.5483 2.7568 15.2382C2.44673 14.9281 2.25479 14.6336 2.09385 14.22C1.97259 13.9081 1.82808 13.4393 1.78877 12.5755C1.74632 11.6416 1.73783 11.3611 1.73783 8.99538C1.73783 6.62966 1.74632 6.3506 1.78877 5.41671C1.82826 4.55296 1.97259 4.08417 2.09385 3.77189C2.25442 3.35847 2.44673 3.06317 2.7568 2.75311C3.06686 2.44304 3.36216 2.2511 3.77558 2.09016C4.08786 1.96835 4.55684 1.82439 5.42059 1.78471C6.23783 1.7478 6.55454 1.73672 8.20564 1.73488V1.73709ZM13.7292 3.20805C13.1423 3.20805 12.6661 3.68367 12.6661 4.27076C12.6661 4.85767 13.1423 5.33385 13.7292 5.33385C14.3161 5.33385 14.7923 4.85767 14.7923 4.27076C14.7923 3.68386 14.3161 3.20768 13.7292 3.20768V3.20805ZM9.00036 4.45016C6.48791 4.45016 4.4509 6.48718 4.4509 8.99963C4.4509 11.5121 6.48791 13.5482 9.00036 13.5482C11.5128 13.5482 13.5491 11.5121 13.5491 8.99963C13.5491 6.48718 11.5126 4.45016 9.00018 4.45016H9.00036ZM9.00036 6.04663C10.6312 6.04663 11.9534 7.36865 11.9534 8.99963C11.9534 10.6304 10.6312 11.9526 9.00036 11.9526C7.36938 11.9526 6.04736 10.6304 6.04736 8.99963C6.04736 7.36865 7.36938 6.04663 9.00036 6.04663Z" fill="#231F20"/>
</svg>
