<svg width="89" height="49" viewBox="0 0 89 49" fill="none" xmlns="http://www.w3.org/2000/svg">
<path d="M11.0332 47.9447C10.9194 47.8312 10.6919 47.6043 10.5782 47.2639L8.41705 43.9735L10.1232 41.8177C10.3507 41.5907 10.4644 41.2504 10.6919 40.91C10.8057 40.5696 11.0332 40.3426 11.1469 40.1157C10.8057 40.1157 10.4644 40.1157 10.1232 40.1157C9.78198 40.1157 9.55448 40.1157 9.327 40.1157C9.09951 40.4561 8.98576 40.683 8.75828 41.0234C8.64453 41.2504 8.41704 41.5907 8.18956 41.8177L6.71089 43.7466V41.8177C6.71089 41.4773 6.71089 41.2504 6.71089 40.91C6.71089 40.5696 6.71089 40.3426 6.59715 40.1157C6.25592 40.1157 5.91468 40.1157 5.57345 40.2292C5.23222 40.2292 5.00473 40.3426 4.77724 40.3426C4.77724 40.683 4.89099 40.91 4.89099 41.2504C4.89099 41.4773 4.89099 41.7042 4.89099 42.0446V43.86L3.41232 41.8177C3.18483 41.5907 3.07108 41.3638 2.8436 41.0234C2.61611 40.7965 2.50237 40.4561 2.27488 40.1157C2.04739 40.1157 1.81991 40.1157 1.47867 40.1157C1.13744 40.1157 0.796209 40.1157 0.454977 40.1157C0.568721 40.3426 0.682467 40.5696 0.909955 40.91C1.0237 41.2504 1.25119 41.4773 1.47867 41.8177L3.18483 43.9735L0.909955 47.2639C0.682467 47.4909 0.568721 47.7178 0.454977 47.9447C0.341233 48.0582 0.113744 48.1716 0 48.2851C0.113744 48.3986 0.11374 48.3986 0.227484 48.3986C0.341228 48.3986 0.454976 48.512 0.568719 48.512C0.682463 48.512 0.796211 48.512 0.909955 48.512C1.0237 48.512 1.13744 48.512 1.13744 48.512C1.25118 48.512 1.36493 48.512 1.47867 48.512C1.59242 48.512 1.70616 48.3986 1.8199 48.3986C1.93364 48.2851 2.04739 48.1716 2.27488 48.0582C2.38862 47.9447 2.61611 47.7178 2.72986 47.4909L4.77724 44.4273V47.4909C4.77724 47.7178 4.77725 47.9447 4.89099 48.0582C4.89099 48.1716 5.00473 48.2851 5.00473 48.3986C5.11848 48.512 5.11847 48.512 5.23222 48.512C5.34596 48.512 5.45971 48.512 5.45971 48.512C5.6872 48.512 5.91469 48.512 6.02843 48.512C6.25592 48.512 6.48341 48.3986 6.59715 48.3986C6.59715 48.2851 6.4834 48.1716 6.4834 48.0582C6.4834 47.9447 6.4834 47.7178 6.4834 47.3774V44.5408L8.53079 47.6043C8.64454 47.8312 8.87203 48.0582 8.98577 48.1716C9.09951 48.2851 9.21326 48.3986 9.44075 48.512C9.55449 48.6255 9.66823 48.6255 9.78197 48.6255C9.89572 48.6255 10.0095 48.6255 10.1232 48.6255C10.237 48.6255 10.2369 48.6255 10.3507 48.6255C10.4644 48.6255 10.5782 48.6255 10.6919 48.6255C10.8057 48.6255 10.9194 48.6255 11.0332 48.512C11.1469 48.512 11.2606 48.3986 11.2606 48.3986C11.3744 48.1716 11.2606 48.0582 11.0332 47.9447Z" fill="#37928A"/>
<path d="M19.5643 47.9447C19.5643 47.8312 19.5643 47.6043 19.5643 47.2639V41.8177C19.5643 41.4773 19.5643 41.2504 19.5643 40.91C19.5643 40.5696 19.5643 40.3426 19.4506 40.1157C19.1093 40.1157 18.7681 40.1157 18.4269 40.2292C18.0856 40.2292 17.8581 40.3426 17.6307 40.3426L14.4458 46.2428V41.8177C14.4458 41.4773 14.4458 41.2504 14.4458 40.91C14.4458 40.5696 14.4458 40.3426 14.3321 40.1157C13.9908 40.1157 13.5359 40.1157 13.1946 40.2292C12.8534 40.3426 12.6259 40.3426 12.3984 40.3426C12.3984 40.683 12.5122 40.91 12.5122 41.2504C12.5122 41.4773 12.5122 41.7042 12.5122 42.0446V47.6043C12.5122 47.8312 12.5122 48.0582 12.5122 48.1716C12.5122 48.2851 12.6259 48.3986 12.6259 48.512C12.6259 48.6255 12.7397 48.6255 12.8534 48.6255C12.9672 48.6255 13.0809 48.6255 13.0809 48.6255C13.1946 48.6255 13.4221 48.6255 13.6496 48.6255C13.8771 48.6255 14.1046 48.512 14.3321 48.3986L17.4032 42.6119V47.6043C17.4032 47.8312 17.4032 48.0582 17.5169 48.1716C17.5169 48.2851 17.6307 48.3986 17.6307 48.512C17.7444 48.6255 17.7444 48.6255 17.8581 48.6255C17.9719 48.6255 18.0856 48.6255 18.0856 48.6255C18.0856 48.6255 18.3131 48.6255 18.4269 48.6255C18.5406 48.6255 18.6544 48.6255 18.7681 48.6255C18.8818 48.6255 18.9956 48.6255 19.1093 48.512C19.2231 48.3986 19.3368 48.3986 19.4506 48.3986C19.6781 48.1716 19.5643 48.0582 19.5643 47.9447Z" fill="#37928A"/>
<path d="M27.0709 44.8812C26.8434 44.5408 26.3884 44.3139 25.9335 44.0869C26.2747 43.86 26.6159 43.6331 26.8434 43.2927C27.0709 42.9523 27.1846 42.6119 27.1846 42.1581C27.1846 41.8177 27.1846 41.5907 26.9572 41.3638C26.8434 41.1369 26.7297 40.91 26.5022 40.683C26.2747 40.5696 26.0472 40.3426 25.706 40.2292C25.3647 40.1157 25.0235 40.1157 24.6823 40.1157H22.8624C22.5211 40.1157 22.0662 40.1157 21.7249 40.1157C21.3837 40.1157 21.1562 40.2292 20.9287 40.2292C21.0425 40.5696 21.0425 40.7965 21.0425 41.1369C21.0425 41.3638 21.0425 41.5907 21.0425 41.9311V47.4909C21.0425 47.7178 21.0425 47.8312 21.1562 48.0582C21.1562 48.2851 21.2699 48.3986 21.2699 48.512C21.4974 48.512 21.6112 48.512 21.7249 48.512C21.8387 48.512 21.9524 48.512 22.0662 48.512C22.1799 48.512 22.2937 48.512 22.5211 48.512C22.6349 48.512 22.7486 48.512 22.9761 48.512H24.5685C25.0235 48.512 25.3647 48.3986 25.706 48.3986C26.0472 48.2851 26.3884 48.1716 26.6159 47.9447C26.8434 47.7178 27.0709 47.4909 27.1846 47.2639C27.2984 47.037 27.4121 46.6966 27.4121 46.3562C27.4121 45.6754 27.2984 45.2216 27.0709 44.8812ZM23.8861 41.1369C24.2273 41.1369 24.4548 41.2504 24.796 41.4773C25.0235 41.7042 25.1373 42.0446 25.1373 42.385C25.1373 42.7254 25.0235 43.0658 24.796 43.2927C24.5685 43.5196 24.341 43.6331 23.9998 43.6331H22.9761V41.4773C22.9761 41.3638 22.9761 41.2504 22.9761 41.1369H23.8861ZM25.1373 47.1505C24.9098 47.3774 24.5685 47.4909 24.2273 47.4909H22.9761V44.7677H24.1135C24.4548 44.7677 24.796 44.8812 25.1373 45.1081C25.3647 45.3351 25.4785 45.6754 25.4785 46.1293C25.4785 46.4697 25.3647 46.8101 25.1373 47.1505Z" fill="#37928A"/>
<path d="M35.9437 42.4985C35.7162 42.0446 35.4887 41.5907 35.1475 41.2504C34.8062 40.91 34.465 40.683 34.01 40.4561C33.5551 40.2292 33.1001 40.1157 32.5314 40.1157C31.9626 40.1157 31.3939 40.2292 30.9389 40.4561C30.484 40.683 30.029 41.0234 29.6878 41.3638C29.3465 41.7042 29.119 42.2715 28.8915 42.7254C28.6641 43.2927 28.6641 43.86 28.6641 44.5408C28.6641 45.1081 28.7778 45.6754 28.8915 46.2428C29.119 46.6966 29.3465 47.1505 29.6878 47.4909C30.029 47.8312 30.3702 48.1716 30.8252 48.2851C31.2802 48.512 31.7351 48.6255 32.3039 48.6255C32.8726 48.6255 33.4413 48.512 33.8963 48.2851C34.3513 48.0582 34.8062 47.7178 35.1475 47.3774C35.4887 47.037 35.7162 46.5831 35.9437 46.0158C36.1712 45.4485 36.1712 44.8812 36.1712 44.2004C36.1712 43.5196 36.0574 43.0658 35.9437 42.4985ZM34.1238 45.6754C34.01 46.0158 33.8963 46.3562 33.7825 46.6966C33.6688 46.9235 33.4413 47.1505 33.2138 47.3774C32.9863 47.4909 32.7589 47.6043 32.4176 47.6043C32.0764 47.6043 31.8489 47.4909 31.6214 47.3774C31.3939 47.2639 31.1664 47.037 31.0527 46.6966C30.9389 46.4697 30.7115 46.1293 30.5977 45.6754C30.484 45.335 30.484 44.8812 30.484 44.4273C30.484 43.9735 30.484 43.5196 30.5977 43.1792C30.7115 42.8388 30.8252 42.4985 30.9389 42.1581C31.0527 41.9311 31.2802 41.7042 31.5077 41.4773C31.7352 41.3638 31.9626 41.2504 32.3039 41.2504C32.5314 41.2504 32.8726 41.3638 33.1001 41.4773C33.3276 41.5907 33.5551 41.8177 33.6688 42.1581C33.7826 42.385 34.01 42.8388 34.1238 43.1792C34.2375 43.6331 34.2375 43.9735 34.2375 44.5408C34.2375 44.8812 34.2375 45.2216 34.1238 45.6754Z" fill="#37928A"/>
<path d="M43.336 47.7181C43.336 47.6047 43.2223 47.4912 43.1085 47.3778C42.9948 47.4912 42.8811 47.4912 42.7673 47.4912C42.6536 47.4912 42.4261 47.4912 42.0849 47.4912H39.2413V44.7681H41.8574C42.0849 44.7681 42.3123 44.7681 42.4261 44.7681C42.5398 44.7681 42.6536 44.7681 42.7673 44.6546C42.8811 44.6546 42.8811 44.5412 42.8811 44.5412V44.4277C42.8811 44.3142 42.8811 44.2008 42.8811 44.0873C42.8811 43.9739 42.7673 43.8604 42.6536 43.7469C42.5398 43.7469 42.4261 43.8604 42.3123 43.8604C42.1986 43.8604 41.9711 43.8604 41.6299 43.8604H39.2413V41.7046C39.2413 41.5911 39.2413 41.4777 39.2413 41.3642H42.0849C42.3123 41.3642 42.5398 41.3642 42.6536 41.3642C42.7673 41.3642 42.8811 41.3642 42.9948 41.2507C43.1085 41.2507 43.1085 41.1373 43.1085 41.1373V41.0238C43.1085 40.9103 43.1085 40.7969 43.1085 40.6834C43.1085 40.5699 42.9948 40.4565 42.8811 40.343C42.7673 40.343 42.6536 40.4565 42.5398 40.4565C42.4261 40.4565 42.1986 40.4565 41.8574 40.4565H39.0138C38.6725 40.4565 38.4451 40.4565 38.1038 40.4565C37.7626 40.4565 37.5351 40.4565 37.3076 40.5699C37.3076 40.9103 37.4214 41.1373 37.4214 41.4777C37.4214 41.7046 37.4214 42.045 37.4214 42.2719V47.8316C37.4214 48.0585 37.4214 48.172 37.4214 48.3989C37.4214 48.6259 37.5351 48.7393 37.5351 48.8528C37.6488 48.8528 37.8763 48.8528 37.9901 48.8528C38.1038 48.8528 38.2176 48.8528 38.4451 48.8528C38.5588 48.8528 38.6725 48.8528 38.7863 48.8528C38.9 48.8528 39.0138 48.8528 39.2413 48.8528H42.1986C42.4261 48.8528 42.6536 48.8528 42.7673 48.8528C42.8811 48.8528 42.9948 48.7393 43.1085 48.7393C43.2223 48.7393 43.2223 48.6259 43.2223 48.6259C43.2223 48.5124 43.2223 48.5124 43.2223 48.5124C43.4498 47.9451 43.4498 47.8316 43.336 47.7181Z" fill="#37928A"/>
<path d="M54.4834 46.923C54.3697 46.8095 54.2559 46.8095 54.1422 46.8095C54.0285 46.8095 53.9147 46.8095 53.801 46.923C53.6872 47.0364 53.5735 47.0364 53.4597 47.1499C53.346 47.2634 53.1185 47.2634 52.891 47.3768C52.6635 47.4903 52.3223 47.4903 51.981 47.4903C51.6398 47.4903 51.2986 47.3768 51.0711 47.2634C50.8436 47.1499 50.6161 46.923 50.3886 46.5826C50.1611 46.2422 50.0474 45.9018 49.9336 45.5614C49.8199 45.1076 49.8199 44.7672 49.8199 44.1999C49.8199 43.746 49.8199 43.2921 49.9336 42.9518C50.0474 42.6114 50.1611 42.271 50.3886 41.9306C50.6161 41.7037 50.8436 41.4767 51.0711 41.2498C51.2986 41.1363 51.6398 41.0229 51.8673 41.0229C52.3223 41.0229 52.5498 41.1363 52.891 41.3633C53.1185 41.5902 53.346 41.9306 53.346 42.271C53.8009 42.271 54.1422 42.1575 54.3697 42.044C54.5972 41.9306 54.8246 41.7037 54.8246 41.4767C54.8246 41.2498 54.7109 41.1363 54.5972 40.9094C54.4834 40.6825 54.2559 40.569 54.0284 40.4556C53.801 40.3421 53.4597 40.2286 53.1185 40.1152C52.7773 40.0017 52.436 40.0017 51.981 40.0017C51.2986 40.0017 50.7299 40.1152 50.2749 40.3421C49.8199 40.569 49.3649 40.9094 49.0237 41.2498C48.6825 41.5902 48.3412 42.1575 48.2275 42.6114C48 43.1787 48 43.746 48 44.4268C48 44.9941 48.1137 45.5614 48.2275 46.0153C48.3412 46.4691 48.6825 46.923 49.0237 47.2634C49.3649 47.6038 49.8199 47.8307 50.2749 48.0576C50.7299 48.2845 51.2986 48.2845 51.8673 48.2845C52.2085 48.2845 52.5498 48.2845 52.891 48.1711C53.2322 48.0576 53.4597 47.9442 53.801 47.8307C54.0284 47.7172 54.2559 47.4903 54.4834 47.3768C54.7109 47.1499 54.8247 47.0364 54.9384 46.8095L54.4834 46.923Z" fill="#37928A"/>
<path d="M62.9007 47.9448C62.9007 47.8313 62.9007 47.6044 62.9007 47.264V41.9312C62.9007 41.5908 62.9007 41.3639 62.9007 41.0235C62.9007 40.6831 62.9007 40.4562 62.7869 40.2292H58.6921C58.3509 40.2292 57.8959 40.2292 57.5547 40.2292C57.2135 40.2292 56.986 40.2292 56.7585 40.3427C56.8722 40.6831 56.8722 40.91 56.8722 41.2504C56.8722 41.4774 56.8722 41.7043 56.8722 42.0447V43.5197C56.8722 44.087 56.8722 44.6543 56.7585 45.1082C56.7585 45.562 56.6447 46.0159 56.531 46.4697C56.4173 46.8101 56.3035 47.1505 56.076 47.3775C55.8485 47.6044 55.621 47.7178 55.3936 47.7178C55.3936 47.9448 55.5073 48.1717 55.621 48.3986C55.7348 48.5121 55.9623 48.6256 56.1898 48.6256C56.531 48.6256 56.8722 48.5121 57.0997 48.1717C57.3272 47.9448 57.6684 47.4909 57.7822 47.0371C58.0097 46.5832 58.1234 46.0159 58.2372 45.3351C58.3509 44.6543 58.3509 43.9735 58.3509 43.0658V41.9312C58.3509 41.8177 58.3509 41.7043 58.3509 41.5908C58.3509 41.4774 58.3509 41.3639 58.3509 41.2504H60.7395C60.7395 41.3639 60.7395 41.4774 60.7395 41.5908V47.4909C60.7395 47.7179 60.7395 47.9448 60.8533 48.0582C60.8533 48.1717 60.967 48.2852 60.967 48.3986C61.0808 48.5121 61.0808 48.5121 61.1945 48.5121C61.3082 48.5121 61.422 48.5121 61.422 48.5121C61.5357 48.5121 61.6495 48.5121 61.7632 48.5121C61.877 48.5121 61.9907 48.5121 62.1045 48.5121C62.2182 48.5121 62.3319 48.5121 62.4457 48.3986C62.5594 48.3986 62.6732 48.2852 62.7869 48.2852C63.0144 48.1717 63.0144 48.0582 62.9007 47.9448Z" fill="#37928A"/>
<path d="M71.6585 42.4985C71.431 42.0446 71.2035 41.5907 70.8623 41.2504C70.5211 40.91 70.1798 40.683 69.7249 40.4561C69.2699 40.2292 68.7012 40.1157 68.2462 40.1157C67.6775 40.1157 67.1088 40.2292 66.6538 40.4561C66.1988 40.683 65.7438 41.0234 65.4026 41.3638C65.0614 41.7042 64.8339 42.2715 64.6064 42.7254C64.3789 43.2927 64.3789 43.86 64.3789 44.5408C64.3789 45.1081 64.4926 45.6754 64.6064 46.2428C64.8339 46.6966 65.0614 47.1505 65.4026 47.4909C65.7438 47.8312 66.0851 48.1716 66.54 48.2851C66.995 48.512 67.45 48.6255 68.0187 48.6255C68.5874 48.6255 69.1561 48.512 69.6111 48.2851C70.0661 48.0582 70.5211 47.7178 70.8623 47.3774C71.2035 47.037 71.431 46.5831 71.6585 46.0158C71.886 45.4485 71.886 44.8812 71.886 44.2004C71.9997 43.5196 71.886 43.0658 71.6585 42.4985ZM69.8386 45.6754C69.7249 46.0158 69.6111 46.3562 69.4974 46.6966C69.3836 46.9235 69.1562 47.1505 68.9287 47.3774C68.7012 47.4909 68.4737 47.6043 68.1324 47.6043C67.7912 47.6043 67.5637 47.4909 67.3362 47.3774C67.1088 47.2639 66.8813 47.037 66.7675 46.6966C66.6538 46.4697 66.4263 46.1293 66.3125 45.6754C66.1988 45.335 66.1988 44.8812 66.1988 44.4273C66.1988 43.9735 66.1988 43.5196 66.3125 43.1792C66.4263 42.8388 66.54 42.4985 66.6538 42.1581C66.7675 41.8177 66.995 41.7042 67.2225 41.4773C67.45 41.3638 67.6775 41.2504 68.0187 41.2504C68.2462 41.2504 68.5874 41.3638 68.8149 41.4773C69.0424 41.5907 69.2699 41.8177 69.3836 42.1581C69.4974 42.4985 69.7249 42.8388 69.8386 43.1792C69.9523 43.6331 69.9524 43.9735 69.9524 44.5408C69.9524 44.8812 69.9523 45.2216 69.8386 45.6754Z" fill="#37928A"/>
<path d="M79.1651 44.8812C78.9377 44.5408 78.4827 44.3139 78.0277 44.0869C78.3689 43.86 78.7101 43.6331 78.9376 43.2927C79.1651 42.9523 79.2789 42.6119 79.2789 42.1581C79.2789 41.8177 79.1651 41.5907 79.0514 41.3638C78.9376 41.1369 78.8239 40.91 78.5964 40.683C78.3689 40.5696 78.1414 40.3426 77.8002 40.2292C77.459 40.1157 77.1177 40.1157 76.7765 40.1157H75.0704C74.7291 40.1157 74.2742 40.1157 73.9329 40.1157C73.5917 40.1157 73.3642 40.2292 73.1367 40.2292C73.1367 40.5696 73.2505 40.7965 73.2505 41.1369C73.2505 41.3638 73.2505 41.5907 73.2505 41.9311V47.4909C73.2505 47.7178 73.2505 47.8312 73.2505 48.0582C73.2505 48.2851 73.3642 48.3986 73.3642 48.512C73.4779 48.512 73.7054 48.512 73.8192 48.512C73.9329 48.512 74.0467 48.512 74.2742 48.512C74.3879 48.512 74.5016 48.512 74.6154 48.512C74.7291 48.512 74.8429 48.512 75.0704 48.512H76.6628C77.1177 48.512 77.459 48.3986 77.8002 48.3986C78.1414 48.2851 78.4827 48.1716 78.7102 47.9447C78.9376 47.7178 79.1651 47.4909 79.2789 47.2639C79.3926 47.037 79.5064 46.6966 79.5064 46.3562C79.6201 45.6754 79.5064 45.2216 79.1651 44.8812ZM76.094 41.1369C76.4353 41.1369 76.6628 41.2504 76.8903 41.4773C77.1178 41.7042 77.2315 42.0446 77.2315 42.385C77.2315 42.7254 77.1178 43.0658 76.8903 43.2927C76.6628 43.5196 76.4353 43.6331 76.094 43.6331H75.0704V41.4773C75.0704 41.3638 75.0704 41.2504 75.0704 41.1369H76.094ZM77.3452 47.1505C77.1177 47.3774 76.7765 47.4909 76.4353 47.4909H75.0704V44.7677H76.2078C76.6628 44.7677 76.8903 44.8812 77.2315 45.1081C77.459 45.3351 77.5727 45.6754 77.5727 46.1293C77.6865 46.4697 77.5727 46.8101 77.3452 47.1505Z" fill="#37928A"/>
<path d="M88.1512 42.4985C87.9237 42.0446 87.6962 41.5907 87.355 41.2504C87.0137 40.91 86.6725 40.683 86.2175 40.4561C85.7626 40.2292 85.1938 40.1157 84.7389 40.1157C84.1701 40.1157 83.6014 40.2292 83.1464 40.4561C82.6915 40.683 82.2365 41.0234 81.8953 41.3638C81.554 41.7042 81.2128 42.2715 81.099 42.7254C80.8716 43.2927 80.7578 43.86 80.7578 44.5408C80.7578 45.1081 80.8716 45.6754 80.9853 46.2428C81.099 46.6966 81.4403 47.1505 81.7815 47.4909C82.1227 47.8312 82.464 48.1716 82.9189 48.2851C83.3739 48.512 83.9426 48.6255 84.3976 48.6255C84.9663 48.6255 85.5351 48.512 85.99 48.2851C86.445 48.0582 86.9 47.7178 87.2412 47.3774C87.5825 47.037 87.9237 46.5831 88.0374 46.0158C88.2649 45.4485 88.3787 44.8812 88.3787 44.2004C88.3787 43.5196 88.2649 43.0658 88.1512 42.4985ZM86.3313 45.6754C86.2175 46.0158 86.1038 46.3562 85.99 46.6966C85.8763 46.9235 85.6488 47.1505 85.4213 47.3774C85.1938 47.4909 84.9663 47.6043 84.6251 47.6043C84.3976 47.6043 84.0564 47.4909 83.8289 47.3774C83.6014 47.2639 83.3739 47.037 83.2602 46.6966C83.0327 46.4697 82.919 46.1293 82.8052 45.6754C82.6915 45.335 82.6915 44.8812 82.6915 44.4273C82.6915 43.9735 82.6915 43.5196 82.8052 43.1792C82.919 42.8388 83.0327 42.4985 83.1464 42.1581C83.2602 41.9311 83.4877 41.7042 83.7152 41.4773C83.9427 41.3638 84.1701 41.2504 84.5114 41.2504C84.7389 41.2504 85.0801 41.3638 85.3076 41.4773C85.5351 41.5907 85.7626 41.8177 85.8763 42.1581C86.1038 42.385 86.2175 42.8388 86.3313 43.1792C86.445 43.6331 86.445 43.9735 86.445 44.5408C86.445 44.8812 86.3313 45.2216 86.3313 45.6754Z" fill="#37928A"/>
<path d="M24.2275 13.4514L25.9337 32.3998H24.2275V13.4514Z" fill="#37928A"/>
<path d="M35.9434 17.1958V19.9189H42.9955V34.4422C40.9482 33.0807 38.5595 32.3999 36.1709 32.3999H28.2088L25.3652 0.970459H36.1709C38.5595 0.970459 42.9955 2.33203 42.9955 5.8494V17.0823H35.9434V17.1958Z" fill="#37928A"/>
<path d="M63.4693 7.66458L61.1944 32.8535H53.0048C50.6162 32.8535 48.3413 33.4208 46.2939 34.442V19.9186H53.1186V17.1955H46.2939V11.9762C46.2939 7.55111 50.6162 7.66458 53.0048 7.66458H63.4693Z" fill="#37928A"/>
<path d="M64.7209 18.7842V32.8537H63.4697L64.7209 18.7842Z" fill="#37928A"/>
</svg>
