<svg width="24" height="16" viewBox="0 0 24 16" fill="none" xmlns="http://www.w3.org/2000/svg">
<path d="M22.8695 2.50549C22.7354 2.02121 22.4737 1.57971 22.1106 1.22495C21.7475 0.870192 21.2956 0.614562 20.7999 0.483516C18.9852 0 11.6815 0 11.6815 0C11.6815 0 4.37771 0.014652 2.56302 0.498168C2.06732 0.629214 1.61541 0.884844 1.25229 1.2396C0.889171 1.59436 0.627515 2.03586 0.49338 2.52015C-0.0555251 5.67033 -0.268488 10.4703 0.508378 13.4945C0.642513 13.9788 0.904169 14.4203 1.26729 14.7751C1.63041 15.1298 2.08232 15.3854 2.57802 15.5165C4.39271 16 11.6965 16 11.6965 16C11.6965 16 19.0002 16 20.8149 15.5165C21.3106 15.3854 21.7625 15.1298 22.1256 14.7751C22.4887 14.4203 22.7504 13.9788 22.8845 13.4945C23.4634 10.3399 23.6419 5.54286 22.8695 2.50549Z" fill="#231F20"/>
<path d="M9.85254 11.0767L16.0064 7.99977L9.85254 4.92285V11.0767Z" fill="white"/>
</svg>
